# xmcd CD database file
#
# Track frame offsets:
# 150
# 10692
# 22520
# 32411
# 44225
# 52847
# 64944
# 76820
# 89577
# 99997
# 113763
# 123392
# 135369
# 147244
#
# Disc length: 2109 seconds
# Revision: 29
# Processed by: cddbd v1.5.2PL0 Copyright (c) Steve Scherf et al.
# Submitted via: MusicBin 0.4
#
DISCID=a6083b0e
DTITLE=Beatles - Beatles For Sale (Mono)
DYEAR=1964
DGENRE=Rock
TTITLE0=No Reply (Mono)
TTITLE1=I'm A Loser (Mono)
TTITLE2=Baby's In Black (Mono)
TTITLE3=Rock And Roll Music (Mono)
TTITLE4=I'll Follow The Sun (Mono)
TTITLE5=Mr. Moonlight (Mono)
TTITLE6=Kansas City/Hey-Hey-Hey-Hey! (Mono)
TTITLE7=Eight Days A Week (Mono)
TTITLE8=Words Of Love (Mono)
TTITLE9=Honey Don't (Mono)
TTITLE10=Every Little Thing (Mono)
TTITLE11=I Don't Want To Spoil The Party (Mono)
TTITLE12=What You're Doing (Mono)
TTITLE13=Everybody's Trying To Be My Baby (Mono)
EXTD=
EXTT0=
EXTT1=
EXTT2=
EXTT3=
EXTT4=
EXTT5=
EXTT6=
EXTT7=
EXTT8=
EXTT9=
EXTT10=
EXTT11=
EXTT12=
EXTT13=
PLAYORDER=
